<?xml version="1.0" encoding="UTF-8" standalone="no"?>
<!-- Created with Inkscape (http://www.inkscape.org/) -->

<svg
   width="4.0026164in"
   height="2.2140045in"
   viewBox="0 0 101.66646 56.235715"
   version="1.1"
   id="svg8"
   inkscape:version="1.1.1 (3bf5ae0d25, 2021-09-20)"
   sodipodi:docname="checlima.svg"
   xmlns:inkscape="http://www.inkscape.org/namespaces/inkscape"
   xmlns:sodipodi="http://sodipodi.sourceforge.net/DTD/sodipodi-0.dtd"
   xmlns="http://www.w3.org/2000/svg"
   xmlns:svg="http://www.w3.org/2000/svg"
   xmlns:rdf="http://www.w3.org/1999/02/22-rdf-syntax-ns#"
   xmlns:cc="http://creativecommons.org/ns#"
   xmlns:dc="http://purl.org/dc/elements/1.1/">
  <defs
     id="defs2">
    <inkscape:path-effect
       effect="bend_path"
       id="path-effect830"
       is_visible="true"
       bendpath="M 66.523808,153.23849 H 122.84226"
       prop_scale="1"
       scale_y_rel="false"
       vertical="false"
       lpeversion="0"
       hide_knot="false" />
    <inkscape:path-effect
       effect="bspline"
       id="path-effect828"
       is_visible="true"
       weight="33.333333"
       steps="2"
       helper_size="0"
       apply_no_weight="true"
       apply_with_weight="true"
       only_selected="false"
       lpeversion="0" />
    <filter
       inkscape:collect="always"
       style="color-interpolation-filters:sRGB"
       id="filter1737"
       x="-0.013786383"
       width="1.0275969"
       y="-0.04407492"
       height="1.0881903">
      <feGaussianBlur
         inkscape:collect="always"
         stdDeviation="0.22537743"
         id="feGaussianBlur1739" />
    </filter>
    <filter
       inkscape:collect="always"
       style="color-interpolation-filters:sRGB"
       id="filter1741"
       x="-0.013725403"
       width="1.0274745"
       y="-0.043618264"
       height="1.0872772">
      <feGaussianBlur
         inkscape:collect="always"
         stdDeviation="0.22537743"
         id="feGaussianBlur1743" />
    </filter>
    <filter
       inkscape:collect="always"
       style="color-interpolation-filters:sRGB"
       id="filter1745"
       x="-0.029236233"
       width="1.0584725"
       y="-0.044007021"
       height="1.088014">
      <feGaussianBlur
         inkscape:collect="always"
         stdDeviation="0.22537743"
         id="feGaussianBlur1747" />
    </filter>
    <filter
       inkscape:collect="always"
       style="color-interpolation-filters:sRGB"
       id="filter1989"
       x="-0.0050776076"
       width="1.0101499"
       y="-0.025183563"
       height="1.0504036">
      <feGaussianBlur
         inkscape:collect="always"
         stdDeviation="0.13519526"
         id="feGaussianBlur1991" />
    </filter>
    <filter
       inkscape:collect="always"
       style="color-interpolation-filters:sRGB"
       id="filter1993"
       x="-0.0050955489"
       width="1.0101911"
       y="-0.0072948167"
       height="1.0145896">
      <feGaussianBlur
         inkscape:collect="always"
         stdDeviation="0.10425932"
         id="feGaussianBlur1995" />
    </filter>
  </defs>
  <sodipodi:namedview
     id="base"
     pagecolor="#ffffff"
     bordercolor="#666666"
     borderopacity="1.0"
     inkscape:pageopacity="0.0"
     inkscape:pageshadow="2"
     inkscape:zoom="1.4"
     inkscape:cx="173.92857"
     inkscape:cy="158.92857"
     inkscape:document-units="mm"
     inkscape:current-layer="layer2"
     showgrid="false"
     inkscape:window-width="1366"
     inkscape:window-height="705"
     inkscape:window-x="1352"
     inkscape:window-y="-8"
     inkscape:window-maximized="1"
     inkscape:pagecheckerboard="0"
     units="in"
     fit-margin-top="0"
     fit-margin-left="0"
     fit-margin-right="0"
     fit-margin-bottom="0" />
  <metadata
     id="metadata5">
    <rdf:RDF>
      <cc:Work
         rdf:about="">
        <dc:format>image/svg+xml</dc:format>
        <dc:type
           rdf:resource="http://purl.org/dc/dcmitype/StillImage" />
      </cc:Work>
    </rdf:RDF>
  </metadata>
  <g
     inkscape:groupmode="layer"
     id="layer2"
     inkscape:label="bitmap"
     style="display:inline"
     transform="translate(-54.278922,-105.2178)" />
  <g
     inkscape:label="sol"
     inkscape:groupmode="layer"
     id="layer1"
     style="display:inline"
     transform="translate(-54.278922,-105.2178)">
    <path
       id="path901"
       style="fill:#068df8;fill-opacity:1;stroke:#058ffc;stroke-width:0.264583;stroke-opacity:1;filter:url(#filter1737)"
       d="m 91.076051,159.95675 c 3.744134,-0.9835 5.811567,-1.92033 10.127139,-4.58897 2.95156,-1.82516 6.08546,-3.2732 9.08123,-4.19604 1.94494,-0.59913 2.93123,-0.73705 5.66246,-0.79183 1.81901,-0.0365 3.41116,-0.0765 3.53812,-0.089 1.0196,-0.10001 -3.49848,-2.27318 -6.84542,-3.29261 -2.78199,-0.84736 -6.76633,-1.49253 -9.21728,-1.49253 -4.323368,0 -6.871345,1.05578 -14.064906,5.82794 -2.453812,1.62784 -5.362898,3.45786 -6.464639,4.06672 -2.74483,1.51687 -6.300788,2.71457 -9.146913,3.0808 -3.153394,0.40577 -3.382546,0.50091 -2.213678,0.91906 1.045798,0.37413 5.835485,1.13146 8.166803,1.29131 3.764674,0.25814 8.846291,-0.0701 11.377084,-0.73488 z"
       inkscape:connector-curvature="0" />
    <path
       style="fill:#068df8;fill-opacity:1;stroke-width:0.264583;filter:url(#filter1745)"
       d="m 59.107363,147.35426 c -2.097223,-0.91094 -3.12503,-2.1909 -3.778085,-4.70495 -0.546314,-2.10312 -0.699868,-6.91165 -0.229989,-7.20205 0.150613,-0.0931 1.19241,0.77643 2.315105,1.93227 1.640767,1.68919 2.482508,2.31612 4.290221,3.19533 3.067902,1.49211 5.226881,1.83657 8.753012,1.39651 1.47326,-0.18386 2.742872,-0.27008 2.821358,-0.19159 0.653267,0.65327 -6.469366,4.76216 -9.854578,5.68489 -1.446078,0.39417 -3.262312,0.34772 -4.317044,-0.11041 z"
       id="path892"
       inkscape:connector-curvature="0" />
    <path
       id="path844"
       style="fill:#f2c43e;fill-opacity:1;stroke-width:0.264583;filter:url(#filter1993)"
       d="m 75.992115,115.29481 c 0,-1.39515 3.710564,-9.61949 4.43177,-9.82287 0.254,-0.0716 0.33073,0.82493 0.33073,3.86446 0,2.17675 0.07222,4.31882 0.160485,4.76015 0.20878,1.0439 -0.2175,1.26891 -2.872465,1.51617 -1.913075,0.17817 -2.05052,0.15686 -2.05052,-0.31791 z m 10.472248,0.62229 c -0.570421,-0.17211 -1.081736,-0.44675 -1.136256,-0.61031 -0.260329,-0.78099 3.932304,-3.68434 6.075987,-4.20755 1.020387,-0.24905 0.967362,0.45103 -0.139134,1.83691 -0.476705,0.59707 -1.19277,1.59159 -1.591254,2.21006 -0.798031,1.23858 -1.277536,1.35375 -3.209343,0.77089 z m -20.934867,4.18925 c -0.944247,-2.13511 -2.127942,-7.886 -1.799389,-8.7422 0.261421,-0.68125 0.570126,-0.42318 1.833856,1.5331 0.681535,1.05503 1.93746,2.72868 2.790944,3.71924 0.853485,0.99055 1.551791,1.94716 1.551791,2.12578 0,0.4211 -2.850257,2.82008 -3.350568,2.82008 -0.210495,0 -0.67248,-0.6552 -1.026634,-1.456 z m 30.454054,1.41724 c -0.673349,-0.74893 -1.182388,-1.48733 -1.131199,-1.6409 0.330512,-0.99154 9.734419,-1.72346 9.710069,-0.75574 -0.005,0.19135 -6.867587,3.79622 -7.180682,3.77185 -0.09565,-0.007 -0.724839,-0.62629 -1.398188,-1.37521 z m -35.020119,8.83616 c -1.38429,-1.96479 -2.734454,-5.69218 -2.240712,-6.18592 0.376296,-0.37629 4.040228,3.18647 4.040228,3.92868 0,0.73406 -0.803225,2.98484 -1.065188,2.98484 -0.121932,0 -0.45238,-0.32742 -0.734328,-0.7276 z m 4.987351,9.18367 c -0.802251,-0.11634 -1.578066,-0.39474 -1.748127,-0.62731 -0.473433,-0.64746 -0.656204,-3.3093 -0.385305,-5.6115 0.849175,-7.21659 5.695284,-13.16109 12.371884,-15.17602 2.869097,-0.86586 5.381118,-1.07958 7.84836,-0.66772 5.403178,0.90196 8.273695,1.376 13.112779,8.20253 0.985626,1.39043 1.059109,1.55124 1.633511,3.53528 0.128935,0.96601 0.307311,2.22005 0.396397,2.78674 l 0.161975,1.03037 -1.290175,-0.18655 c -5.796767,-0.38262 -10.026971,-0.72479 -15.114656,1.22672 l -1.389063,0.56831 -1.740749,0.96096 c -0.04973,0 -1.692762,0.81752 -3.651171,1.81671 -2.885996,1.47245 -3.942914,1.87355 -5.577512,2.11667 -2.214287,0.32933 -2.516798,0.33095 -4.62815,0.0248 z M 100.5258,129.12383 c -0.21313,-0.55639 -0.30903,-1.12882 -0.21308,-1.27206 0.45814,-0.68398 5.3206,0.85357 7.04671,2.22822 0.82163,0.65433 0.23562,1.041 -1.53759,1.01458 -0.76395,-0.0114 -1.98869,0.0314 -2.72167,0.0949 -1.4679,0.12726 -1.85253,-0.18132 -2.57437,-2.06562 z"
       inkscape:connector-curvature="0" />
    <path
       id="path901-3"
       style="fill:#ebf3f5;fill-opacity:1;stroke:#ecf1f4;stroke-width:0.267045;stroke-opacity:1;filter:url(#filter1741)"
       d="m 79.999191,152.40075 c 3.767727,-0.99561 5.848188,-1.94398 10.190952,-4.64549 2.97017,-1.84764 6.12381,-3.31352 9.138458,-4.24773 1.957189,-0.60651 2.949689,-0.74613 5.698149,-0.80158 1.83047,-0.0369 3.43264,-0.0774 3.5604,-0.0901 1.02603,-0.10124 -3.52051,-2.30118 -6.88855,-3.33316 -2.799527,-0.8578 -6.808957,-1.51092 -9.275367,-1.51092 -4.3506,0 -6.914638,1.06879 -14.15353,5.89973 -2.469274,1.64789 -5.396692,3.50045 -6.505376,4.11681 -2.762126,1.53555 -6.340493,2.748 -9.204552,3.11875 -3.173265,0.41076 -3.403861,0.50708 -2.227628,0.93038 1.052388,0.37873 5.872258,1.14539 8.218267,1.30721 3.788396,0.26132 8.902035,-0.071 11.448777,-0.74393 z"
       inkscape:connector-curvature="0" />
  </g>
  <g
     inkscape:groupmode="layer"
     id="layer3"
     inkscape:label="texto"
     style="display:inline"
     transform="translate(-54.278922,-105.2178)"
     sodipodi:insensitive="true">
    <path
       id="path1033"
       style="display:inline;fill:#068df8;fill-opacity:1;stroke:#068df8;stroke-width:0.264583;stroke-opacity:1;filter:url(#filter1989)"
       d="m 120.01161,123.89321 c 0.0606,-0.1819 0.269,-0.33073 0.46303,-0.33073 0.19402,0 0.40238,0.14883 0.46302,0.33073 0.0656,0.19674 -0.12201,0.33073 -0.46302,0.33073 -0.34102,0 -0.5286,-0.13399 -0.46303,-0.33073 z m 1.82029,13.62604 c -0.64585,-1.59598 -1.17404,-9.4216 -0.66994,-9.92569 0.34399,-0.34399 0.9003,0.16514 0.90241,0.82587 0.001,0.38461 0.30138,2.4257 0.66699,4.53576 0.70196,4.05116 0.67172,5.29166 -0.12898,5.29166 -0.27155,0 -0.60252,-0.31255 -0.77048,-0.7276 z m 31.2715,-1.03366 c 1.45464,-0.46806 1.64183,-0.74632 1.23187,-1.83113 -0.77533,-2.0516 -3.10844,-3.06988 -5.70203,-2.48865 -1.42231,0.31875 -2.88433,1.28815 -3.08184,2.04343 -0.62286,2.38182 3.42878,3.60308 7.552,2.27635 z m -6.16808,1.15505 c -1.54303,-0.75889 -2.3836,-2.01743 -2.3836,-3.56886 0,-2.33226 2.461,-3.65381 5.63533,-3.02617 2.44529,0.48349 2.94766,-0.32933 1.29715,-2.09876 -0.89509,-0.95959 -1.1769,-1.09593 -2.57649,-1.24653 -1.20251,-0.12939 -1.59227,-0.27762 -1.66007,-0.63134 -0.14107,-0.73606 1.15034,-1.09603 2.53813,-0.70747 2.14144,0.59957 3.15947,1.60746 4.46518,4.42068 0.86891,1.87215 1.19689,2.92098 1.23248,3.94128 0.0615,1.76395 -0.37931,2.22788 -2.82364,2.97155 -2.34726,0.71413 -4.19758,0.69656 -5.72447,-0.0544 z m -5.84966,0.27548 c -0.0146,-0.1819 -0.0443,-1.46182 -0.0662,-2.84427 -0.0467,-2.95985 -0.73289,-4.75628 -2.08356,-5.45473 -0.72798,-0.37646 -0.90064,-0.37444 -1.94046,0.0227 -0.62776,0.23975 -1.56567,0.90553 -2.08424,1.47954 -1.03911,1.15017 -1.15195,1.84025 -0.62382,3.81489 0.25128,0.93951 0.24974,1.26219 -0.007,1.5192 -0.58674,0.58674 -1.1828,-0.14364 -1.90006,-2.32827 -0.3785,-1.1528 -0.81978,-2.33546 -0.98064,-2.62813 -1.27172,-2.31379 -4.01122,-1.97727 -4.86085,0.5971 -0.19575,0.59314 -0.2365,1.69201 -0.11628,3.13531 0.16134,1.93691 0.12849,2.24383 -0.25598,2.39136 -0.93438,0.35856 -1.14394,-0.40913 -1.23676,-4.53077 l -0.0893,-3.9662 1.19063,-0.23299 c 2.35592,-0.46103 4.12792,-0.35508 4.94189,0.29547 1.96914,1.5738 1.72322,1.5664 3.62456,0.10911 0.94585,-0.72496 2.08384,-1.39808 2.52885,-1.49582 1.91507,-0.42062 4.14765,1.34142 4.89705,3.86494 0.46645,1.57069 0.55114,5.29844 0.13792,6.07055 -0.3056,0.57102 -1.03446,0.69371 -1.0755,0.18104 z m -23.96885,0 c -0.25647,-0.39627 -0.46702,-12.11701 -0.23432,-13.04416 0.21185,-0.84407 0.88994,-0.83073 1.21487,0.0239 0.28722,0.75543 0.38407,11.57633 0.11328,12.65526 -0.18457,0.73537 -0.7352,0.91911 -1.09383,0.365 z m -11.24697,-0.17499 c -1.70945,-1.0841 -2.42992,-2.94108 -2.42143,-6.24115 0.006,-2.33421 0.0285,-2.41784 1.13767,-4.23333 2.16481,-3.54334 4.3428,-5.25034 6.51791,-5.10842 1.47822,0.0964 1.94248,0.60372 1.55528,1.6994 -0.32083,0.90784 -0.81863,1.08953 -1.04355,0.38087 -0.35802,-1.128 -2.42849,-0.43514 -4.70985,1.57608 -1.5262,1.34548 -1.87421,1.9891 -2.28727,4.23019 -0.69151,3.75181 0.99377,6.89302 3.6852,6.86888 0.50933,-0.005 1.69995,-0.17853 2.64584,-0.38659 3.00921,-0.66191 4.78456,-0.40195 3.38187,0.49519 -0.63962,0.40908 -5.39701,1.48919 -6.55925,1.48919 -0.37828,0 -1.23436,-0.34664 -1.90242,-0.77031 z m -19.037233,0.59127 c -0.02196,-0.11981 -0.05173,-1.77065 -0.06615,-3.66853 -0.0291,-3.83246 -0.239297,-4.4567 -1.826517,-5.42449 -1.083495,-0.66065 -1.944224,-0.65224 -3.063168,0.0299 l -0.894733,0.54547 0.178398,1.76864 c 0.495638,4.91383 0.500223,5.73868 0.03405,6.12557 -0.841388,0.69829 -0.961797,0.19021 -1.47148,-6.20901 -0.162266,-2.03729 -0.584533,-4.97549 -0.938371,-6.52933 -0.85167,-3.74001 -0.842624,-4.61227 0.0443,-4.27193 0.34508,0.13242 1.339,3.06177 1.869384,5.50959 0.183322,0.84606 0.334632,1.04286 0.754375,0.98118 2.54308,-0.37368 2.704817,-0.36578 3.784267,0.18492 0.873228,0.44548 1.277416,0.90701 1.937141,2.21196 0.718685,1.42158 0.861468,2.05046 1.035198,4.55944 0.214387,3.09617 0.0013,4.14676 -0.875749,4.31565 -0.253556,0.0488 -0.478981,-0.009 -0.500949,-0.12906 z m 8.827836,-7.39637 c 1.93851,-0.97287 2.29665,-2.10709 1.110462,-3.51679 -1.59049,-1.89019 -4.944113,-0.23777 -5.328132,2.62531 -0.218334,1.62779 -0.05743,1.79791 1.558954,1.64819 0.776296,-0.0719 1.972718,-0.41243 2.658716,-0.75671 z m -0.234868,7.5693 c -2.185757,-0.44334 -4.057012,-1.81317 -4.820417,-3.52874 -0.999776,-2.24676 -1.074978,-3.26881 -0.413877,-5.62475 0.981541,-3.49787 5.411142,-5.40266 7.46506,-3.21008 1.20791,1.28946 1.478685,3.45334 0.588558,4.70341 -1.004594,1.41082 -2.256624,1.95267 -4.614691,1.99714 l -2.127451,0.0401 0.05354,0.72503 c 0.0817,1.10652 0.707644,1.85661 2.110505,2.52909 1.041834,0.49941 1.845162,0.63354 4.3844,0.73203 1.709867,0.0663 3.108848,0.21039 3.108848,0.32015 0,0.89249 -3.670519,1.73522 -5.73447,1.3166 z m -26.681905,-0.098 c -3.183377,-1.38708 -4.292934,-6.83505 -2.218428,-10.89256 1.531752,-2.99595 4.080402,-5.16931 6.519246,-5.5593 1.211076,-0.19366 1.92181,0.31624 1.92181,1.37875 0,1.4201 -1.18941,2.36439 -1.370661,1.08818 -0.140443,-0.98888 -1.21314,-0.88568 -3.035278,0.29203 -3.650905,2.35969 -4.928987,6.07568 -3.371638,9.80294 0.93003,2.22587 2.111893,2.68307 5.316132,2.05651 4.072072,-0.79625 4.243583,-0.80415 4.561525,-0.21008 0.236879,0.44262 0.19318,0.58864 -0.246597,0.824 -0.394806,0.2113 -6.969452,1.64493 -7.236226,1.57789 -0.02267,-0.006 -0.400617,-0.16695 -0.839885,-0.35836 z"
       inkscape:connector-curvature="0" />
  </g>
</svg>
